# Blender v2.78 (sub 0) OBJ File: 'chess set.blend'
# www.blender.org
mtllib board.mtl
o board.modified_Plane.001
v -7.377798 0.000000 7.377798
v 7.377798 0.000000 7.377798
v -7.377798 0.000000 -7.377798
v 7.377798 0.000000 -7.377798
v -7.521418 0.000000 7.521418
v 7.521418 0.000000 7.521418
v -7.521418 0.000000 -7.521418
v 7.521418 0.000000 -7.521418
v -7.521418 -0.100000 7.521418
v 7.521418 -0.100000 7.521418
v -7.521418 -0.100000 -7.521418
v 7.521418 -0.100000 -7.521418
v -7.031228 -0.100000 7.031228
v 7.031228 -0.100000 7.031228
v -7.031228 -0.100000 -7.031228
v 7.031228 -0.100000 -7.031228
v -7.377798 -0.012605 7.377798
v 7.377798 -0.012605 7.377798
v 7.377798 -0.012605 -7.377798
v -7.377798 -0.012605 -7.377798
vt 0.5048 0.5000
vt 0.0048 0.5048
vt 0.0000 0.5000
vt 0.5048 1.0000
vt 0.5000 0.5048
vt 0.0048 0.9952
vt 0.0000 1.0000
vt 0.5149 0.4905
vt 0.5182 0.9905
vt 0.5149 0.9905
vt 0.5082 0.4905
vt 0.5115 0.9905
vt 0.5082 0.9905
vt 0.5048 0.4905
vt 0.5082 0.9905
vt 0.5048 0.9905
vt 0.5115 0.4905
vt 0.5149 0.4905
vt 0.0000 0.0000
vt 0.0165 0.4837
vt 0.0000 0.5000
vt 0.5048 0.5000
vt 0.4884 0.0163
vt 0.5048 0.0000
vt 0.0165 0.0163
vt 0.4884 0.4837
vt 0.5187 0.4905
vt 0.5191 0.9809
vt 0.5187 0.9809
vt 1.0000 0.0000
vt 0.5048 0.4905
vt 0.5048 0.0000
vt 0.5182 0.4905
vt 0.5187 0.9809
vt 0.5182 0.9809
vt 0.5195 0.9809
vt 0.5191 0.4905
vt 0.5195 0.4905
vt 0.5199 0.9809
vt 0.5195 0.9809
vt 0.5000 0.9952
vt 0.5182 0.4905
vt 0.5115 0.4905
vt 0.5082 0.4905
vt 0.5115 0.9905
vt 0.5191 0.4905
vt 1.0000 0.4905
vt 0.5187 0.4905
vt 0.5191 0.9809
vt 0.5199 0.4905
vn 0.0000 1.0000 0.0000
vn -1.0000 0.0000 0.0000
vn 0.0000 0.0000 -1.0000
vn 1.0000 0.0000 0.0000
vn 0.0000 0.0000 1.0000
vn 0.0000 -1.0000 0.0000
usemtl opengl._board
s off
f 6/1/1 1/2/1 5/3/1
f 8/4/1 2/5/1 6/1/1
f 3/6/1 8/4/1 7/7/1
f 1/2/1 7/7/1 5/3/1
f 7/8/2 9/9/2 5/10/2
f 8/11/3 11/12/3 7/13/3
f 6/14/4 12/15/4 8/16/4
f 5/10/5 10/17/5 6/18/5
f 11/19/6 13/20/6 9/21/6
f 10/22/6 16/23/6 12/24/6
f 12/24/6 15/25/6 11/19/6
f 9/21/6 14/26/6 10/22/6
f 13/20/6 16/23/6 14/26/6
f 2/27/3 17/28/3 1/29/3
f 19/30/1 17/31/1 18/32/1
f 1/33/4 20/34/4 3/35/4
f 3/36/5 19/37/5 4/38/5
f 4/38/2 18/39/2 2/40/2
f 6/1/1 2/5/1 1/2/1
f 8/4/1 4/41/1 2/5/1
f 3/6/1 4/41/1 8/4/1
f 1/2/1 3/6/1 7/7/1
f 7/8/2 11/42/2 9/9/2
f 8/11/3 12/43/3 11/12/3
f 6/14/4 10/44/4 12/15/4
f 5/10/5 9/45/5 10/17/5
f 11/19/6 15/25/6 13/20/6
f 10/22/6 14/26/6 16/23/6
f 12/24/6 16/23/6 15/25/6
f 9/21/6 13/20/6 14/26/6
f 13/20/6 15/25/6 16/23/6
f 2/27/3 18/46/3 17/28/3
f 19/30/1 20/47/1 17/31/1
f 1/33/4 17/48/4 20/34/4
f 3/36/5 20/49/5 19/37/5
f 4/38/2 19/50/2 18/39/2
